<svg xmlns="http://www.w3.org/2000/svg" width="416" height="152" viewBox="0 0 416 152" role="img" aria-label="Finished simulation runs per day in 2026">
<title>Simulation runs, 2026</title>
<style>text{font-family:-apple-system,BlinkMacSystemFont,"Segoe UI",Helvetica,Arial,sans-serif}</style>
<text x="0" y="13" font-size="13" font-weight="600" fill="#8b929c">Simulation runs</text>
<text x="416" y="13" font-size="11" fill="#8b929c" text-anchor="end">10,878 runs in 2026</text>
<text x="0.0" y="30" font-size="10" fill="#8b929c">Mar</text>
<text x="53.5" y="30" font-size="10" fill="#8b929c">Apr</text>
<text x="107.1" y="30" font-size="10" fill="#8b929c">May</text>
<text x="174.0" y="30" font-size="10" fill="#8b929c">Jun</text>
<text x="227.6" y="30" font-size="10" fill="#8b929c">Jul</text>
<text x="281.1" y="30" font-size="10" fill="#8b929c">Aug</text>
<text x="348.1" y="30" font-size="10" fill="#8b929c">Sep</text>
<text x="401.6" y="30" font-size="10" fill="#8b929c">Oct</text>
<rect x="0.00" y="36.00" width="10.98" height="10.98" rx="2.0" fill="#8b929c" opacity="0.2"><title>2026-03-01: 0 runs</title></rect>
<rect x="0.00" y="49.39" width="10.98" height="10.98" rx="2.0" fill="#8b929c" opacity="0.2"><title>2026-03-02: 0 runs</title></rect>
<rect x="0.00" y="62.77" width="10.98" height="10.98" rx="2.0" fill="#8b929c" opacity="0.2"><title>2026-03-03: 0 runs</title></rect>
<rect x="0.00" y="76.16" width="10.98" height="10.98" rx="2.0" fill="#8b929c" opacity="0.2"><title>2026-03-04: 0 runs</title></rect>
<rect x="0.00" y="89.55" width="10.98" height="10.98" rx="2.0" fill="#8b929c" opacity="0.2"><title>2026-03-05: 0 runs</title></rect>
<rect x="0.00" y="102.94" width="10.98" height="10.98" rx="2.0" fill="#8b929c" opacity="0.2"><title>2026-03-06: 0 runs</title></rect>
<rect x="0.00" y="116.32" width="10.98" height="10.98" rx="2.0" fill="#8b929c" opacity="0.2"><title>2026-03-07: 0 runs</title></rect>
<rect x="13.39" y="36.00" width="10.98" height="10.98" rx="2.0" fill="#8b929c" opacity="0.2"><title>2026-03-08: 0 runs</title></rect>
<rect x="13.39" y="49.39" width="10.98" height="10.98" rx="2.0" fill="#8b929c" opacity="0.2"><title>2026-03-09: 0 runs</title></rect>
<rect x="13.39" y="62.77" width="10.98" height="10.98" rx="2.0" fill="#8b929c" opacity="0.2"><title>2026-03-10: 0 runs</title></rect>
<rect x="13.39" y="76.16" width="10.98" height="10.98" rx="2.0" fill="#5598e7"><title>2026-03-11: 19 runs</title></rect>
<rect x="13.39" y="89.55" width="10.98" height="10.98" rx="2.0" fill="#5598e7"><title>2026-03-12: 19 runs</title></rect>
<rect x="13.39" y="102.94" width="10.98" height="10.98" rx="2.0" fill="#8b929c" opacity="0.2"><title>2026-03-13: 0 runs</title></rect>
<rect x="13.39" y="116.32" width="10.98" height="10.98" rx="2.0" fill="#8b929c" opacity="0.2"><title>2026-03-14: 0 runs</title></rect>
<rect x="26.77" y="36.00" width="10.98" height="10.98" rx="2.0" fill="#8b929c" opacity="0.2"><title>2026-03-15: 0 runs</title></rect>
<rect x="26.77" y="49.39" width="10.98" height="10.98" rx="2.0" fill="#256abf"><title>2026-03-16: 60 runs</title></rect>
<rect x="26.77" y="62.77" width="10.98" height="10.98" rx="2.0" fill="#184f95"><title>2026-03-17: 107 runs</title></rect>
<rect x="26.77" y="76.16" width="10.98" height="10.98" rx="2.0" fill="#184f95"><title>2026-03-18: 140 runs</title></rect>
<rect x="26.77" y="89.55" width="10.98" height="10.98" rx="2.0" fill="#184f95"><title>2026-03-19: 90 runs</title></rect>
<rect x="26.77" y="102.94" width="10.98" height="10.98" rx="2.0" fill="#184f95"><title>2026-03-20: 198 runs</title></rect>
<rect x="26.77" y="116.32" width="10.98" height="10.98" rx="2.0" fill="#184f95"><title>2026-03-21: 176 runs</title></rect>
<rect x="40.16" y="36.00" width="10.98" height="10.98" rx="2.0" fill="#256abf"><title>2026-03-22: 48 runs</title></rect>
<rect x="40.16" y="49.39" width="10.98" height="10.98" rx="2.0" fill="#256abf"><title>2026-03-23: 65 runs</title></rect>
<rect x="40.16" y="62.77" width="10.98" height="10.98" rx="2.0" fill="#184f95"><title>2026-03-24: 168 runs</title></rect>
<rect x="40.16" y="76.16" width="10.98" height="10.98" rx="2.0" fill="#5598e7"><title>2026-03-25: 18 runs</title></rect>
<rect x="40.16" y="89.55" width="10.98" height="10.98" rx="2.0" fill="#184f95"><title>2026-03-26: 267 runs</title></rect>
<rect x="40.16" y="102.94" width="10.98" height="10.98" rx="2.0" fill="#184f95"><title>2026-03-27: 122 runs</title></rect>
<rect x="40.16" y="116.32" width="10.98" height="10.98" rx="2.0" fill="#8b929c" opacity="0.2"><title>2026-03-28: 0 runs</title></rect>
<rect x="53.55" y="36.00" width="10.98" height="10.98" rx="2.0" fill="#8b929c" opacity="0.2"><title>2026-03-29: 0 runs</title></rect>
<rect x="53.55" y="49.39" width="10.98" height="10.98" rx="2.0" fill="#9ec5f4"><title>2026-03-30: 4 runs</title></rect>
<rect x="53.55" y="62.77" width="10.98" height="10.98" rx="2.0" fill="#184f95"><title>2026-03-31: 92 runs</title></rect>
<rect x="53.55" y="76.16" width="10.98" height="10.98" rx="2.0" fill="#256abf"><title>2026-04-01: 70 runs</title></rect>
<rect x="53.55" y="89.55" width="10.98" height="10.98" rx="2.0" fill="#8b929c" opacity="0.2"><title>2026-04-02: 0 runs</title></rect>
<rect x="53.55" y="102.94" width="10.98" height="10.98" rx="2.0" fill="#184f95"><title>2026-04-03: 96 runs</title></rect>
<rect x="53.55" y="116.32" width="10.98" height="10.98" rx="2.0" fill="#184f95"><title>2026-04-04: 1,519 runs</title></rect>
<rect x="66.94" y="36.00" width="10.98" height="10.98" rx="2.0" fill="#8b929c" opacity="0.2"><title>2026-04-05: 0 runs</title></rect>
<rect x="66.94" y="49.39" width="10.98" height="10.98" rx="2.0" fill="#256abf"><title>2026-04-06: 29 runs</title></rect>
<rect x="66.94" y="62.77" width="10.98" height="10.98" rx="2.0" fill="#256abf"><title>2026-04-07: 34 runs</title></rect>
<rect x="66.94" y="76.16" width="10.98" height="10.98" rx="2.0" fill="#5598e7"><title>2026-04-08: 18 runs</title></rect>
<rect x="66.94" y="89.55" width="10.98" height="10.98" rx="2.0" fill="#256abf"><title>2026-04-09: 43 runs</title></rect>
<rect x="66.94" y="102.94" width="10.98" height="10.98" rx="2.0" fill="#256abf"><title>2026-04-10: 46 runs</title></rect>
<rect x="66.94" y="116.32" width="10.98" height="10.98" rx="2.0" fill="#256abf"><title>2026-04-11: 70 runs</title></rect>
<rect x="80.32" y="36.00" width="10.98" height="10.98" rx="2.0" fill="#256abf"><title>2026-04-12: 26 runs</title></rect>
<rect x="80.32" y="49.39" width="10.98" height="10.98" rx="2.0" fill="#256abf"><title>2026-04-13: 26 runs</title></rect>
<rect x="80.32" y="62.77" width="10.98" height="10.98" rx="2.0" fill="#256abf"><title>2026-04-14: 52 runs</title></rect>
<rect x="80.32" y="76.16" width="10.98" height="10.98" rx="2.0" fill="#5598e7"><title>2026-04-15: 7 runs</title></rect>
<rect x="80.32" y="89.55" width="10.98" height="10.98" rx="2.0" fill="#9ec5f4"><title>2026-04-16: 3 runs</title></rect>
<rect x="80.32" y="102.94" width="10.98" height="10.98" rx="2.0" fill="#8b929c" opacity="0.2"><title>2026-04-17: 0 runs</title></rect>
<rect x="80.32" y="116.32" width="10.98" height="10.98" rx="2.0" fill="#8b929c" opacity="0.2"><title>2026-04-18: 0 runs</title></rect>
<rect x="93.71" y="36.00" width="10.98" height="10.98" rx="2.0" fill="#8b929c" opacity="0.2"><title>2026-04-19: 0 runs</title></rect>
<rect x="93.71" y="49.39" width="10.98" height="10.98" rx="2.0" fill="#256abf"><title>2026-04-20: 57 runs</title></rect>
<rect x="93.71" y="62.77" width="10.98" height="10.98" rx="2.0" fill="#184f95"><title>2026-04-21: 77 runs</title></rect>
<rect x="93.71" y="76.16" width="10.98" height="10.98" rx="2.0" fill="#256abf"><title>2026-04-22: 70 runs</title></rect>
<rect x="93.71" y="89.55" width="10.98" height="10.98" rx="2.0" fill="#184f95"><title>2026-04-23: 484 runs</title></rect>
<rect x="93.71" y="102.94" width="10.98" height="10.98" rx="2.0" fill="#184f95"><title>2026-04-24: 488 runs</title></rect>
<rect x="93.71" y="116.32" width="10.98" height="10.98" rx="2.0" fill="#5598e7"><title>2026-04-25: 8 runs</title></rect>
<rect x="107.10" y="36.00" width="10.98" height="10.98" rx="2.0" fill="#8b929c" opacity="0.2"><title>2026-04-26: 0 runs</title></rect>
<rect x="107.10" y="49.39" width="10.98" height="10.98" rx="2.0" fill="#5598e7"><title>2026-04-27: 15 runs</title></rect>
<rect x="107.10" y="62.77" width="10.98" height="10.98" rx="2.0" fill="#8b929c" opacity="0.2"><title>2026-04-28: 0 runs</title></rect>
<rect x="107.10" y="76.16" width="10.98" height="10.98" rx="2.0" fill="#8b929c" opacity="0.2"><title>2026-04-29: 0 runs</title></rect>
<rect x="107.10" y="89.55" width="10.98" height="10.98" rx="2.0" fill="#8b929c" opacity="0.2"><title>2026-04-30: 0 runs</title></rect>
<rect x="107.10" y="102.94" width="10.98" height="10.98" rx="2.0" fill="#8b929c" opacity="0.2"><title>2026-05-01: 0 runs</title></rect>
<rect x="107.10" y="116.32" width="10.98" height="10.98" rx="2.0" fill="#8b929c" opacity="0.2"><title>2026-05-02: 0 runs</title></rect>
<rect x="120.48" y="36.00" width="10.98" height="10.98" rx="2.0" fill="#8b929c" opacity="0.2"><title>2026-05-03: 0 runs</title></rect>
<rect x="120.48" y="49.39" width="10.98" height="10.98" rx="2.0" fill="#8b929c" opacity="0.2"><title>2026-05-04: 0 runs</title></rect>
<rect x="120.48" y="62.77" width="10.98" height="10.98" rx="2.0" fill="#8b929c" opacity="0.2"><title>2026-05-05: 0 runs</title></rect>
<rect x="120.48" y="76.16" width="10.98" height="10.98" rx="2.0" fill="#5598e7"><title>2026-05-06: 11 runs</title></rect>
<rect x="120.48" y="89.55" width="10.98" height="10.98" rx="2.0" fill="#256abf"><title>2026-05-07: 47 runs</title></rect>
<rect x="120.48" y="102.94" width="10.98" height="10.98" rx="2.0" fill="#5598e7"><title>2026-05-08: 13 runs</title></rect>
<rect x="120.48" y="116.32" width="10.98" height="10.98" rx="2.0" fill="#9ec5f4"><title>2026-05-09: 3 runs</title></rect>
<rect x="133.87" y="36.00" width="10.98" height="10.98" rx="2.0" fill="#5598e7"><title>2026-05-10: 14 runs</title></rect>
<rect x="133.87" y="49.39" width="10.98" height="10.98" rx="2.0" fill="#9ec5f4"><title>2026-05-11: 1 runs</title></rect>
<rect x="133.87" y="62.77" width="10.98" height="10.98" rx="2.0" fill="#9ec5f4"><title>2026-05-12: 2 runs</title></rect>
<rect x="133.87" y="76.16" width="10.98" height="10.98" rx="2.0" fill="#256abf"><title>2026-05-13: 46 runs</title></rect>
<rect x="133.87" y="89.55" width="10.98" height="10.98" rx="2.0" fill="#9ec5f4"><title>2026-05-14: 2 runs</title></rect>
<rect x="133.87" y="102.94" width="10.98" height="10.98" rx="2.0" fill="#8b929c" opacity="0.2"><title>2026-05-15: 0 runs</title></rect>
<rect x="133.87" y="116.32" width="10.98" height="10.98" rx="2.0" fill="#8b929c" opacity="0.2"><title>2026-05-16: 0 runs</title></rect>
<rect x="147.26" y="36.00" width="10.98" height="10.98" rx="2.0" fill="#9ec5f4"><title>2026-05-17: 1 runs</title></rect>
<rect x="147.26" y="49.39" width="10.98" height="10.98" rx="2.0" fill="#9ec5f4"><title>2026-05-18: 3 runs</title></rect>
<rect x="147.26" y="62.77" width="10.98" height="10.98" rx="2.0" fill="#9ec5f4"><title>2026-05-19: 2 runs</title></rect>
<rect x="147.26" y="76.16" width="10.98" height="10.98" rx="2.0" fill="#9ec5f4"><title>2026-05-20: 2 runs</title></rect>
<rect x="147.26" y="89.55" width="10.98" height="10.98" rx="2.0" fill="#5598e7"><title>2026-05-21: 9 runs</title></rect>
<rect x="147.26" y="102.94" width="10.98" height="10.98" rx="2.0" fill="#8b929c" opacity="0.2"><title>2026-05-22: 0 runs</title></rect>
<rect x="147.26" y="116.32" width="10.98" height="10.98" rx="2.0" fill="#8b929c" opacity="0.2"><title>2026-05-23: 0 runs</title></rect>
<rect x="160.65" y="36.00" width="10.98" height="10.98" rx="2.0" fill="#8b929c" opacity="0.2"><title>2026-05-24: 0 runs</title></rect>
<rect x="160.65" y="49.39" width="10.98" height="10.98" rx="2.0" fill="#8b929c" opacity="0.2"><title>2026-05-25: 0 runs</title></rect>
<rect x="160.65" y="62.77" width="10.98" height="10.98" rx="2.0" fill="#8b929c" opacity="0.2"><title>2026-05-26: 0 runs</title></rect>
<rect x="160.65" y="76.16" width="10.98" height="10.98" rx="2.0" fill="#8b929c" opacity="0.2"><title>2026-05-27: 0 runs</title></rect>
<rect x="160.65" y="89.55" width="10.98" height="10.98" rx="2.0" fill="#8b929c" opacity="0.2"><title>2026-05-28: 0 runs</title></rect>
<rect x="160.65" y="102.94" width="10.98" height="10.98" rx="2.0" fill="#8b929c" opacity="0.2"><title>2026-05-29: 0 runs</title></rect>
<rect x="160.65" y="116.32" width="10.98" height="10.98" rx="2.0" fill="#8b929c" opacity="0.2"><title>2026-05-30: 0 runs</title></rect>
<rect x="174.03" y="36.00" width="10.98" height="10.98" rx="2.0" fill="#8b929c" opacity="0.2"><title>2026-05-31: 0 runs</title></rect>
<rect x="174.03" y="49.39" width="10.98" height="10.98" rx="2.0" fill="#8b929c" opacity="0.2"><title>2026-06-01: 0 runs</title></rect>
<rect x="174.03" y="62.77" width="10.98" height="10.98" rx="2.0" fill="#9ec5f4"><title>2026-06-02: 1 runs</title></rect>
<rect x="174.03" y="76.16" width="10.98" height="10.98" rx="2.0" fill="#8b929c" opacity="0.2"><title>2026-06-03: 0 runs</title></rect>
<rect x="174.03" y="89.55" width="10.98" height="10.98" rx="2.0" fill="#9ec5f4"><title>2026-06-04: 3 runs</title></rect>
<rect x="174.03" y="102.94" width="10.98" height="10.98" rx="2.0" fill="#9ec5f4"><title>2026-06-05: 5 runs</title></rect>
<rect x="174.03" y="116.32" width="10.98" height="10.98" rx="2.0" fill="#9ec5f4"><title>2026-06-06: 4 runs</title></rect>
<rect x="187.42" y="36.00" width="10.98" height="10.98" rx="2.0" fill="#8b929c" opacity="0.2"><title>2026-06-07: 0 runs</title></rect>
<rect x="187.42" y="49.39" width="10.98" height="10.98" rx="2.0" fill="#8b929c" opacity="0.2"><title>2026-06-08: 0 runs</title></rect>
<rect x="187.42" y="62.77" width="10.98" height="10.98" rx="2.0" fill="#9ec5f4"><title>2026-06-09: 4 runs</title></rect>
<rect x="187.42" y="76.16" width="10.98" height="10.98" rx="2.0" fill="#5598e7"><title>2026-06-10: 16 runs</title></rect>
<rect x="187.42" y="89.55" width="10.98" height="10.98" rx="2.0" fill="#256abf"><title>2026-06-11: 34 runs</title></rect>
<rect x="187.42" y="102.94" width="10.98" height="10.98" rx="2.0" fill="#256abf"><title>2026-06-12: 44 runs</title></rect>
<rect x="187.42" y="116.32" width="10.98" height="10.98" rx="2.0" fill="#8b929c" opacity="0.2"><title>2026-06-13: 0 runs</title></rect>
<rect x="200.81" y="36.00" width="10.98" height="10.98" rx="2.0" fill="#9ec5f4"><title>2026-06-14: 2 runs</title></rect>
<rect x="200.81" y="49.39" width="10.98" height="10.98" rx="2.0" fill="#5598e7"><title>2026-06-15: 7 runs</title></rect>
<rect x="200.81" y="62.77" width="10.98" height="10.98" rx="2.0" fill="#256abf"><title>2026-06-16: 66 runs</title></rect>
<rect x="200.81" y="76.16" width="10.98" height="10.98" rx="2.0" fill="#8b929c" opacity="0.2"><title>2026-06-17: 0 runs</title></rect>
<rect x="200.81" y="89.55" width="10.98" height="10.98" rx="2.0" fill="#9ec5f4"><title>2026-06-18: 2 runs</title></rect>
<rect x="200.81" y="102.94" width="10.98" height="10.98" rx="2.0" fill="#8b929c" opacity="0.2"><title>2026-06-19: 0 runs</title></rect>
<rect x="200.81" y="116.32" width="10.98" height="10.98" rx="2.0" fill="#8b929c" opacity="0.2"><title>2026-06-20: 0 runs</title></rect>
<rect x="214.19" y="36.00" width="10.98" height="10.98" rx="2.0" fill="#8b929c" opacity="0.2"><title>2026-06-21: 0 runs</title></rect>
<rect x="214.19" y="49.39" width="10.98" height="10.98" rx="2.0" fill="#256abf"><title>2026-06-22: 29 runs</title></rect>
<rect x="214.19" y="62.77" width="10.98" height="10.98" rx="2.0" fill="#9ec5f4"><title>2026-06-23: 3 runs</title></rect>
<rect x="214.19" y="76.16" width="10.98" height="10.98" rx="2.0" fill="#9ec5f4"><title>2026-06-24: 6 runs</title></rect>
<rect x="214.19" y="89.55" width="10.98" height="10.98" rx="2.0" fill="#8b929c" opacity="0.2"><title>2026-06-25: 0 runs</title></rect>
<rect x="214.19" y="102.94" width="10.98" height="10.98" rx="2.0" fill="#9ec5f4"><title>2026-06-26: 2 runs</title></rect>
<rect x="214.19" y="116.32" width="10.98" height="10.98" rx="2.0" fill="#8b929c" opacity="0.2"><title>2026-06-27: 0 runs</title></rect>
<rect x="227.58" y="36.00" width="10.98" height="10.98" rx="2.0" fill="#8b929c" opacity="0.2"><title>2026-06-28: 0 runs</title></rect>
<rect x="227.58" y="49.39" width="10.98" height="10.98" rx="2.0" fill="#9ec5f4"><title>2026-06-29: 2 runs</title></rect>
<rect x="227.58" y="62.77" width="10.98" height="10.98" rx="2.0" fill="#8b929c" opacity="0.2"><title>2026-06-30: 0 runs</title></rect>
<rect x="227.58" y="76.16" width="10.98" height="10.98" rx="2.0" fill="#8b929c" opacity="0.2"><title>2026-07-01: 0 runs</title></rect>
<rect x="227.58" y="89.55" width="10.98" height="10.98" rx="2.0" fill="#8b929c" opacity="0.2"><title>2026-07-02: 0 runs</title></rect>
<rect x="227.58" y="102.94" width="10.98" height="10.98" rx="2.0" fill="#8b929c" opacity="0.2"><title>2026-07-03: 0 runs</title></rect>
<rect x="227.58" y="116.32" width="10.98" height="10.98" rx="2.0" fill="#8b929c" opacity="0.2"><title>2026-07-04: 0 runs</title></rect>
<rect x="240.97" y="36.00" width="10.98" height="10.98" rx="2.0" fill="#8b929c" opacity="0.2"><title>2026-07-05: 0 runs</title></rect>
<rect x="240.97" y="49.39" width="10.98" height="10.98" rx="2.0" fill="#9ec5f4"><title>2026-07-06: 4 runs</title></rect>
<rect x="240.97" y="62.77" width="10.98" height="10.98" rx="2.0" fill="#8b929c" opacity="0.2"><title>2026-07-07: 0 runs</title></rect>
<rect x="240.97" y="76.16" width="10.98" height="10.98" rx="2.0" fill="#9ec5f4"><title>2026-07-08: 1 runs</title></rect>
<rect x="240.97" y="89.55" width="10.98" height="10.98" rx="2.0" fill="#184f95"><title>2026-07-09: 82 runs</title></rect>
<rect x="240.97" y="102.94" width="10.98" height="10.98" rx="2.0" fill="#8b929c" opacity="0.2"><title>2026-07-10: 0 runs</title></rect>
<rect x="240.97" y="116.32" width="10.98" height="10.98" rx="2.0" fill="#8b929c" opacity="0.2"><title>2026-07-11: 0 runs</title></rect>
<rect x="254.35" y="36.00" width="10.98" height="10.98" rx="2.0" fill="#9ec5f4"><title>2026-07-12: 4 runs</title></rect>
<rect x="254.35" y="49.39" width="10.98" height="10.98" rx="2.0" fill="#8b929c" opacity="0.2"><title>2026-07-13: 0 runs</title></rect>
<rect x="254.35" y="62.77" width="10.98" height="10.98" rx="2.0" fill="#184f95"><title>2026-07-14: 157 runs</title></rect>
<rect x="254.35" y="76.16" width="10.98" height="10.98" rx="2.0" fill="#256abf"><title>2026-07-15: 58 runs</title></rect>
<rect x="254.35" y="89.55" width="10.98" height="10.98" rx="2.0" fill="#256abf"><title>2026-07-16: 37 runs</title></rect>
<rect x="254.35" y="102.94" width="10.98" height="10.98" rx="2.0" fill="#184f95"><title>2026-07-17: 82 runs</title></rect>
<rect x="254.35" y="116.32" width="10.98" height="10.98" rx="2.0" fill="#256abf"><title>2026-07-18: 47 runs</title></rect>
<rect x="267.74" y="36.00" width="10.98" height="10.98" rx="2.0" fill="#5598e7"><title>2026-07-19: 9 runs</title></rect>
<rect x="267.74" y="49.39" width="10.98" height="10.98" rx="2.0" fill="#9ec5f4"><title>2026-07-20: 6 runs</title></rect>
<rect x="267.74" y="62.77" width="10.98" height="10.98" rx="2.0" fill="#8b929c" opacity="0.2"><title>2026-07-21: 0 runs</title></rect>
<rect x="267.74" y="76.16" width="10.98" height="10.98" rx="2.0" fill="#8b929c" opacity="0.2"><title>2026-07-22: 0 runs</title></rect>
<rect x="267.74" y="89.55" width="10.98" height="10.98" rx="2.0" fill="#5598e7"><title>2026-07-23: 13 runs</title></rect>
<rect x="267.74" y="102.94" width="10.98" height="10.98" rx="2.0" fill="#9ec5f4"><title>2026-07-24: 1 runs</title></rect>
<rect x="267.74" y="116.32" width="10.98" height="10.98" rx="2.0" fill="#8b929c" opacity="0.2"><title>2026-07-25: 0 runs</title></rect>
<rect x="281.13" y="36.00" width="10.98" height="10.98" rx="2.0" fill="#9ec5f4"><title>2026-07-26: 2 runs</title></rect>
<rect x="281.13" y="49.39" width="10.98" height="10.98" rx="2.0" fill="#9ec5f4"><title>2026-07-27: 1 runs</title></rect>
<rect x="281.13" y="62.77" width="10.98" height="10.98" rx="2.0" fill="#9ec5f4"><title>2026-07-28: 2 runs</title></rect>
<rect x="281.13" y="76.16" width="10.98" height="10.98" rx="2.0" fill="#256abf"><title>2026-07-29: 32 runs</title></rect>
<rect x="281.13" y="89.55" width="10.98" height="10.98" rx="2.0" fill="#8b929c" opacity="0.2"><title>2026-07-30: 0 runs</title></rect>
<rect x="281.13" y="102.94" width="10.98" height="10.98" rx="2.0" fill="#8b929c" opacity="0.2"><title>2026-07-31: 0 runs</title></rect>
<rect x="281.13" y="116.32" width="10.98" height="10.98" rx="2.0" fill="#5598e7"><title>2026-08-01: 20 runs</title></rect>
<rect x="294.52" y="36.00" width="10.98" height="10.98" rx="2.0" fill="#256abf"><title>2026-08-02: 54 runs</title></rect>
<rect x="294.52" y="49.39" width="10.98" height="10.98" rx="2.0" fill="#184f95"><title>2026-08-03: 233 runs</title></rect>
<rect x="294.52" y="62.77" width="10.98" height="10.98" rx="2.0" fill="#184f95"><title>2026-08-04: 123 runs</title></rect>
<rect x="294.52" y="76.16" width="10.98" height="10.98" rx="2.0" fill="#184f95"><title>2026-08-05: 107 runs</title></rect>
<rect x="294.52" y="89.55" width="10.98" height="10.98" rx="2.0" fill="#8b929c" opacity="0.2"><title>2026-08-06: 0 runs</title></rect>
<rect x="294.52" y="102.94" width="10.98" height="10.98" rx="2.0" fill="#256abf"><title>2026-08-07: 26 runs</title></rect>
<rect x="294.52" y="116.32" width="10.98" height="10.98" rx="2.0" fill="#5598e7"><title>2026-08-08: 14 runs</title></rect>
<rect x="307.90" y="36.00" width="10.98" height="10.98" rx="2.0" fill="#5598e7"><title>2026-08-09: 8 runs</title></rect>
<rect x="307.90" y="49.39" width="10.98" height="10.98" rx="2.0" fill="#184f95"><title>2026-08-10: 474 runs</title></rect>
<rect x="307.90" y="62.77" width="10.98" height="10.98" rx="2.0" fill="#184f95"><title>2026-08-11: 139 runs</title></rect>
<rect x="307.90" y="76.16" width="10.98" height="10.98" rx="2.0" fill="#184f95"><title>2026-08-12: 291 runs</title></rect>
<rect x="307.90" y="89.55" width="10.98" height="10.98" rx="2.0" fill="#5598e7"><title>2026-08-13: 20 runs</title></rect>
<rect x="307.90" y="102.94" width="10.98" height="10.98" rx="2.0" fill="#8b929c" opacity="0.2"><title>2026-08-14: 0 runs</title></rect>
<rect x="307.90" y="116.32" width="10.98" height="10.98" rx="2.0" fill="#184f95"><title>2026-08-15: 164 runs</title></rect>
<rect x="321.29" y="36.00" width="10.98" height="10.98" rx="2.0" fill="#184f95"><title>2026-08-16: 175 runs</title></rect>
<rect x="321.29" y="49.39" width="10.98" height="10.98" rx="2.0" fill="#5598e7"><title>2026-08-17: 14 runs</title></rect>
<rect x="321.29" y="62.77" width="10.98" height="10.98" rx="2.0" fill="#184f95"><title>2026-08-18: 91 runs</title></rect>
<rect x="321.29" y="76.16" width="10.98" height="10.98" rx="2.0" fill="#184f95"><title>2026-08-19: 99 runs</title></rect>
<rect x="321.29" y="89.55" width="10.98" height="10.98" rx="2.0" fill="#9ec5f4"><title>2026-08-20: 4 runs</title></rect>
<rect x="321.29" y="102.94" width="10.98" height="10.98" rx="2.0" fill="#8b929c" opacity="0.2"><title>2026-08-21: 0 runs</title></rect>
<rect x="321.29" y="116.32" width="10.98" height="10.98" rx="2.0" fill="#8b929c" opacity="0.2"><title>2026-08-22: 0 runs</title></rect>
<rect x="334.68" y="36.00" width="10.98" height="10.98" rx="2.0" fill="#8b929c" opacity="0.2"><title>2026-08-23: 0 runs</title></rect>
<rect x="334.68" y="49.39" width="10.98" height="10.98" rx="2.0" fill="#9ec5f4"><title>2026-08-24: 2 runs</title></rect>
<rect x="334.68" y="62.77" width="10.98" height="10.98" rx="2.0" fill="#9ec5f4"><title>2026-08-25: 2 runs</title></rect>
<rect x="334.68" y="76.16" width="10.98" height="10.98" rx="2.0" fill="#8b929c" opacity="0.2"><title>2026-08-26: 0 runs</title></rect>
<rect x="334.68" y="89.55" width="10.98" height="10.98" rx="2.0" fill="#9ec5f4"><title>2026-08-27: 3 runs</title></rect>
<rect x="334.68" y="102.94" width="10.98" height="10.98" rx="2.0" fill="#5598e7"><title>2026-08-28: 10 runs</title></rect>
<rect x="334.68" y="116.32" width="10.98" height="10.98" rx="2.0" fill="#5598e7"><title>2026-08-29: 23 runs</title></rect>
<rect x="348.06" y="36.00" width="10.98" height="10.98" rx="2.0" fill="#256abf"><title>2026-08-30: 35 runs</title></rect>
<rect x="348.06" y="49.39" width="10.98" height="10.98" rx="2.0" fill="#184f95"><title>2026-08-31: 101 runs</title></rect>
<rect x="348.06" y="62.77" width="10.98" height="10.98" rx="2.0" fill="#184f95"><title>2026-09-01: 79 runs</title></rect>
<rect x="348.06" y="76.16" width="10.98" height="10.98" rx="2.0" fill="#256abf"><title>2026-09-02: 56 runs</title></rect>
<rect x="348.06" y="89.55" width="10.98" height="10.98" rx="2.0" fill="#5598e7"><title>2026-09-03: 22 runs</title></rect>
<rect x="348.06" y="102.94" width="10.98" height="10.98" rx="2.0" fill="#256abf"><title>2026-09-04: 41 runs</title></rect>
<rect x="348.06" y="116.32" width="10.98" height="10.98" rx="2.0" fill="#5598e7"><title>2026-09-05: 20 runs</title></rect>
<rect x="361.45" y="36.00" width="10.98" height="10.98" rx="2.0" fill="#8b929c" opacity="0.2"><title>2026-09-06: 0 runs</title></rect>
<rect x="361.45" y="49.39" width="10.98" height="10.98" rx="2.0" fill="#5598e7"><title>2026-09-07: 12 runs</title></rect>
<rect x="361.45" y="62.77" width="10.98" height="10.98" rx="2.0" fill="#5598e7"><title>2026-09-08: 15 runs</title></rect>
<rect x="361.45" y="76.16" width="10.98" height="10.98" rx="2.0" fill="#8b929c" opacity="0.2"><title>2026-09-09: 0 runs</title></rect>
<rect x="361.45" y="89.55" width="10.98" height="10.98" rx="2.0" fill="#8b929c" opacity="0.2"><title>2026-09-10: 0 runs</title></rect>
<rect x="361.45" y="102.94" width="10.98" height="10.98" rx="2.0" fill="#8b929c" opacity="0.2"><title>2026-09-11: 0 runs</title></rect>
<rect x="361.45" y="116.32" width="10.98" height="10.98" rx="2.0" fill="#9ec5f4"><title>2026-09-12: 2 runs</title></rect>
<rect x="374.84" y="36.00" width="10.98" height="10.98" rx="2.0" fill="#8b929c" opacity="0.2"><title>2026-09-13: 0 runs</title></rect>
<rect x="374.84" y="49.39" width="10.98" height="10.98" rx="2.0" fill="#8b929c" opacity="0.2"><title>2026-09-14: 0 runs</title></rect>
<rect x="374.84" y="62.77" width="10.98" height="10.98" rx="2.0" fill="#5598e7"><title>2026-09-15: 13 runs</title></rect>
<rect x="374.84" y="76.16" width="10.98" height="10.98" rx="2.0" fill="#9ec5f4"><title>2026-09-16: 3 runs</title></rect>
<rect x="374.84" y="89.55" width="10.98" height="10.98" rx="2.0" fill="#9ec5f4"><title>2026-09-17: 3 runs</title></rect>
<rect x="374.84" y="102.94" width="10.98" height="10.98" rx="2.0" fill="#9ec5f4"><title>2026-09-18: 4 runs</title></rect>
<rect x="374.84" y="116.32" width="10.98" height="10.98" rx="2.0" fill="#5598e7"><title>2026-09-19: 9 runs</title></rect>
<rect x="388.23" y="36.00" width="10.98" height="10.98" rx="2.0" fill="#9ec5f4"><title>2026-09-20: 6 runs</title></rect>
<rect x="388.23" y="49.39" width="10.98" height="10.98" rx="2.0" fill="#256abf"><title>2026-09-21: 40 runs</title></rect>
<rect x="388.23" y="62.77" width="10.98" height="10.98" rx="2.0" fill="#256abf"><title>2026-09-22: 63 runs</title></rect>
<rect x="388.23" y="76.16" width="10.98" height="10.98" rx="2.0" fill="#5598e7"><title>2026-09-23: 23 runs</title></rect>
<rect x="388.23" y="89.55" width="10.98" height="10.98" rx="2.0" fill="#8b929c" opacity="0.2"><title>2026-09-24: 0 runs</title></rect>
<rect x="388.23" y="102.94" width="10.98" height="10.98" rx="2.0" fill="#256abf"><title>2026-09-25: 41 runs</title></rect>
<rect x="388.23" y="116.32" width="10.98" height="10.98" rx="2.0" fill="#256abf"><title>2026-09-26: 34 runs</title></rect>
<rect x="401.61" y="36.00" width="10.98" height="10.98" rx="2.0" fill="#8b929c" opacity="0.2"><title>2026-09-27: 0 runs</title></rect>
<rect x="401.61" y="49.39" width="10.98" height="10.98" rx="2.0" fill="#184f95"><title>2026-09-28: 142 runs</title></rect>
<rect x="401.61" y="62.77" width="10.98" height="10.98" rx="2.0" fill="#5598e7"><title>2026-09-29: 19 runs</title></rect>
<rect x="401.61" y="76.16" width="10.98" height="10.98" rx="2.0" fill="#256abf"><title>2026-09-30: 28 runs</title></rect>
<text x="299" y="145.7" font-size="10" fill="#8b929c">Less</text>
<rect x="325" y="137.7" width="9" height="9" rx="2.0" fill="#8b929c" opacity="0.2"/>
<rect x="336.0" y="137.7" width="9" height="9" rx="2.0" fill="#9ec5f4"/>
<rect x="347.0" y="137.7" width="9" height="9" rx="2.0" fill="#5598e7"/>
<rect x="358.0" y="137.7" width="9" height="9" rx="2.0" fill="#256abf"/>
<rect x="369.0" y="137.7" width="9" height="9" rx="2.0" fill="#184f95"/>
<text x="384.0" y="145.7" font-size="10" fill="#8b929c">More</text>
</svg>